# xmcd
#
# Track frame offsets:
#	150
#	13208
#	25577
#	41212
#	53430
#	65313
#	77940
#	89267
#	103711
#	106684
#	124777
#	140735
#	155546
#	170917
#	173642
#
# Disc length: 2546 seconds
#
# Revision: 1
# Processed by: cddbd v1.5.1PL0 Copyright (c) Steve Scherf et al.
# Submitted via: audiograbber 1.83.01
#
DISCID=c209f00f
DTITLE=Hometown News - Hometown News
DYEAR=2005
DGENRE=Country
TTITLE0=33, 45, 78
TTITLE1=Brand New Me
TTITLE2=That's Country To Me
TTITLE3=Here I Go Again
TTITLE4=About Caroline
TTITLE5=Anyway
TTITLE6=Jumpin' Over Fences
TTITLE7=Long Way Back Home
TTITLE8=Navinim, Ole'
TTITLE9=Ain't That Just Like Love
TTITLE10=The Sun Also Rises
TTITLE11=Good Dose of You
TTITLE12=If I Could
TTITLE13=Little Ju Ju
TTITLE14=Train Long Gone
EXTD=
EXTT0=
EXTT1=
EXTT2=
EXTT3=
EXTT4=
EXTT5=
EXTT6=
EXTT7=
EXTT8=
EXTT9=
EXTT10=
EXTT11=
EXTT12=
EXTT13=
EXTT14=
PLAYORDER=
